<svg width="24" height="22" viewBox="0 0 24 22" fill="none" xmlns="http://www.w3.org/2000/svg">
<path d="M22 6.66667V17.3333C22 17.7 21.7 18 21.3333 18H13.3333C13.3333 16.1583 11.8417 14.6667 10 14.6667H7.33333C5.49167 14.6667 4 16.1583 4 18H2.66667C2.3 18 2 17.7 2 17.3333V6.66667H22ZM2.66667 1.33333C1.19583 1.33333 0 2.52917 0 4V17.3333C0 18.8042 1.19583 20 2.66667 20H21.3333C22.8042 20 24 18.8042 24 17.3333V4C24 2.52917 22.8042 1.33333 21.3333 1.33333H2.66667ZM11.3333 10.6667C11.3333 9.95942 11.0524 9.28115 10.5523 8.78105C10.0522 8.28095 9.37391 8 8.66667 8C7.95942 8 7.28115 8.28095 6.78105 8.78105C6.28095 9.28115 6 9.95942 6 10.6667C6 11.3739 6.28095 12.0522 6.78105 12.5523C7.28115 13.0524 7.95942 13.3333 8.66667 13.3333C9.37391 13.3333 10.0522 13.0524 10.5523 12.5523C11.0524 12.0522 11.3333 11.3739 11.3333 10.6667ZM15.6667 8.66667C15.1125 8.66667 14.6667 9.1125 14.6667 9.66667C14.6667 10.2208 15.1125 10.6667 15.6667 10.6667H19C19.5542 10.6667 20 10.2208 20 9.66667C20 9.1125 19.5542 8.66667 19 8.66667H15.6667ZM15.6667 12.6667C15.1125 12.6667 14.6667 13.1125 14.6667 13.6667C14.6667 14.2208 15.1125 14.6667 15.6667 14.6667H19C19.5542 14.6667 20 14.2208 20 13.6667C20 13.1125 19.5542 12.6667 19 12.6667H15.6667Z" fill="white"/>
</svg>
